<svg width="35" height="35" viewBox="0 0 35 35" fill="none" xmlns="http://www.w3.org/2000/svg">
<circle cx="17.5" cy="17.5" r="16.5" fill="white" stroke="#F53060" stroke-width="2"/>
<path d="M26.25 10.8125H23.0625L22.3031 8.68438C22.2507 8.53875 22.1545 8.41288 22.0278 8.32395C21.9011 8.23502 21.7501 8.18736 21.5953 8.1875H14.4047C14.0883 8.1875 13.8047 8.38672 13.6992 8.68438L12.9375 10.8125H9.75C8.71406 10.8125 7.875 11.6516 7.875 12.6875V23.375C7.875 24.4109 8.71406 25.25 9.75 25.25H26.25C27.2859 25.25 28.125 24.4109 28.125 23.375V12.6875C28.125 11.6516 27.2859 10.8125 26.25 10.8125ZM26.4375 23.375C26.4375 23.4781 26.3531 23.5625 26.25 23.5625H9.75C9.64688 23.5625 9.5625 23.4781 9.5625 23.375V12.6875C9.5625 12.5844 9.64688 12.5 9.75 12.5H14.1258L14.5266 11.3797L15.0633 9.875H20.9344L21.4711 11.3797L21.8719 12.5H26.25C26.3531 12.5 26.4375 12.5844 26.4375 12.6875V23.375ZM18 14C15.9281 14 14.25 15.6781 14.25 17.75C14.25 19.8219 15.9281 21.5 18 21.5C20.0719 21.5 21.75 19.8219 21.75 17.75C21.75 15.6781 20.0719 14 18 14ZM18 20C16.7578 20 15.75 18.9922 15.75 17.75C15.75 16.5078 16.7578 15.5 18 15.5C19.2422 15.5 20.25 16.5078 20.25 17.75C20.25 18.9922 19.2422 20 18 20Z" fill="#F53060"/>
</svg>
