<svg width="32" height="32" viewBox="0 0 32 32" fill="none" xmlns="http://www.w3.org/2000/svg">
<path d="M6.375 32H20.625C21.2547 31.9994 21.8584 31.7584 22.3037 31.3299C22.7489 30.9013 22.9994 30.3203 23 29.7143V26.2857H20.625V29.7143H6.375V2.28571H20.625V5.71429H23V2.28571C22.9994 1.67969 22.7489 1.09866 22.3037 0.670139C21.8584 0.241615 21.2547 0.000605116 20.625 0H6.375C5.7453 0.000605116 5.14158 0.241615 4.69632 0.670139C4.25105 1.09866 4.00063 1.67969 4 2.28571V29.7143C4.00063 30.3203 4.25105 30.9013 4.69632 31.3299C5.14158 31.7584 5.7453 31.9994 6.375 32Z" fill="#F53060"/>
<path d="M23.3503 21.3503L27.534 17.1667H11V14.8333H27.534L23.3503 10.6497L25 9L32 16L25 23L23.3503 21.3503Z" fill="#F53060"/>
</svg>
