<svg width="20" height="22" viewBox="0 0 20 22" fill="none" xmlns="http://www.w3.org/2000/svg">
<path d="M4.16667 4.58333H9.16667C9.625 4.58333 10 4.17083 10 3.66667C10 3.1625 9.625 2.75 9.16667 2.75H4.16667C3.25 2.75 2.5 3.575 2.5 4.58333V17.4167C2.5 18.425 3.25 19.25 4.16667 19.25H9.16667C9.625 19.25 10 18.8375 10 18.3333C10 17.8292 9.625 17.4167 9.16667 17.4167H4.16667V4.58333Z" fill="#F53060"/>
<path d="M17.2083 10.6791L14.8833 8.12158C14.8254 8.05609 14.751 8.0111 14.6696 7.99239C14.5883 7.97368 14.5037 7.98209 14.4268 8.01654C14.3498 8.051 14.284 8.10993 14.2376 8.1858C14.1913 8.26166 14.1666 8.35101 14.1667 8.44241V10.0832H8.33333C7.875 10.0832 7.5 10.4957 7.5 10.9999C7.5 11.5041 7.875 11.9166 8.33333 11.9166H14.1667V13.5574C14.1667 13.9699 14.6167 14.1716 14.875 13.8782L17.2 11.3207C17.3667 11.1466 17.3667 10.8532 17.2083 10.6791Z" fill="#F53060"/>
</svg>
