<svg width="20" height="20" viewBox="0 0 20 20" fill="none" xmlns="http://www.w3.org/2000/svg">
<g clip-path="url(#clip0_37_19)">
<path d="M5.43333 14.6573V14.5573H5.33333H4.76667H4.66667H4.56667H2.1V14.5571L2.00027 14.5573H2L1.9998 14.5573C1.99891 14.5573 1.99801 14.5573 1.99712 14.5573C1.9236 14.5571 1.85082 14.5426 1.78285 14.5145C1.71405 14.4861 1.65155 14.4444 1.59891 14.3918C1.54628 14.3391 1.50456 14.2766 1.47615 14.2078C1.44804 14.1398 1.4335 14.0669 1.43333 13.9932V13.9907V13.9907L1.43353 13.8907H1.43333V2.1V2C1.43333 1.6859 1.6859 1.43333 2 1.43333H2.1H17.9H18C18.3141 1.43333 18.5667 1.6859 18.5667 2V2.1V13.8907V13.9907C18.5667 14.3048 18.3141 14.5573 18 14.5573H17.9H10.1H10H9.9H9.77733H9.74393L9.71724 14.5774L9.54023 14.7105L9.54003 14.7106L9.5399 14.7107L5.43333 17.7886V15.424V15.324V15.224V14.6573ZM2 16.0907H2.1H3.9V19.2213V19.3213V19.4213H3.90655C3.92065 19.5285 3.95729 19.6318 4.0145 19.7244C4.08935 19.8455 4.19646 19.9434 4.3238 20.0071C4.45115 20.0707 4.59371 20.0977 4.73552 20.0849C4.8439 20.0751 4.94856 20.0424 5.04274 19.9894L5.04665 19.9946L5.12628 19.935C5.1264 19.9349 5.12652 19.9348 5.12664 19.9347C5.12665 19.9347 5.12666 19.9347 5.12667 19.9347L10.2554 16.0907H17.9H18H18.1V16.0883C19.1805 16.0379 20.0464 15.1735 20.0976 14.092H20.1V13.992C20.1 13.9916 20.1 13.9911 20.1 13.9907V13.8907V2.1V2V1.9H20.0977C20.0472 0.817885 19.1809 -0.0471645 18.1 -0.0976689V-0.1H18H17.9H2.1H2H1.9V-0.0976689C0.819087 -0.0471647 -0.047151 0.817885 -0.0976709 1.9H-0.1V2V2.1V13.8907V13.9907V14.0907H-0.0976709C-0.0471508 15.1728 0.819087 16.0378 1.9 16.0883V16.0907H2ZM5.33333 5.22933H5.23333V5.32933V6.66267V6.76267H5.33333H5.9H6H6.1H13.9H14H14.1H14.6667H14.7667V6.66267V5.32933V5.22933H14.6667H14.1H14H13.9H6.1H6H5.9H5.33333ZM5.33333 9.22667H5.23333V9.32667V10.66V10.76H5.33333H5.9H6H6.1H11.2333H11.3333H11.4333H12H12.1V10.66V9.32667V9.22667H12H11.4333H11.3333H11.2333H6.1H6H5.9H5.33333Z" fill="#F53060" stroke="#F53060" stroke-width="0.2"/>
</g>
<defs>
<clipPath id="clip0_37_19">
<rect width="20" height="20" fill="white"/>
</clipPath>
</defs>
</svg>
