<svg width="26" height="26" viewBox="0 0 26 26" fill="none" xmlns="http://www.w3.org/2000/svg">
<path d="M8.03604 18.9025L8.03602 18.9025C7.52586 18.977 7.14171 19.4228 7.14171 19.9579V19.9582C7.14104 20.1917 7.21741 20.4189 7.35897 20.6046C7.6188 20.9429 7.88553 21.2759 8.159 21.6033L8.29607 21.7674H8.08225H6.68637H6.6378L6.60777 21.7292C6.51976 21.6173 6.43126 21.5033 6.34176 21.3872C6.02511 20.9765 5.85837 20.4701 5.85837 19.9584C5.85837 18.8059 6.69053 17.8026 7.85058 17.6332C11.6825 17.0732 14.3484 17.1239 18.1569 17.651C19.3054 17.8096 20.1417 18.7981 20.1417 19.9437C20.1417 19.9437 20.1417 19.9438 20.1417 19.9438H20.0417C20.0421 20.4522 19.8668 20.9451 19.5455 21.3391L8.03604 18.9025ZM8.03604 18.9025C11.7332 18.3624 14.2764 18.4087 17.9808 18.9216L8.03604 18.9025ZM14.2055 13.2021C13.8233 13.3604 13.4137 13.4418 13 13.4418C12.1646 13.4418 11.3634 13.11 10.7727 12.5192C10.1819 11.9285 9.85004 11.1273 9.85004 10.2918C9.85004 9.4564 10.1819 8.65518 10.7727 8.06444C11.3634 7.4737 12.1646 7.14183 13 7.14183C13.4137 7.14183 13.8233 7.22331 14.2055 7.38161C14.5877 7.53991 14.9349 7.77194 15.2274 8.06444C15.5199 8.35695 15.752 8.7042 15.9103 9.08638C16.0686 9.46855 16.15 9.87817 16.15 10.2918C16.15 10.7055 16.0686 11.1151 15.9103 11.4973C15.752 11.8795 15.5199 12.2267 15.2274 12.5192C14.9349 12.8117 14.5877 13.0437 14.2055 13.2021ZM13 14.7252C14.1758 14.7252 15.3035 14.2581 16.1349 13.4267C16.9663 12.5953 17.4334 11.4676 17.4334 10.2918C17.4334 9.11604 16.9663 7.9884 16.1349 7.15699C15.3035 6.32558 14.1758 5.8585 13 5.8585C11.8242 5.8585 10.6966 6.32558 9.8652 7.15699C9.03379 7.9884 8.56671 9.11604 8.56671 10.2918C8.56671 11.4676 9.03379 12.5953 9.8652 13.4267C10.6966 14.2581 11.8242 14.7252 13 14.7252Z" fill="#F53060" stroke="#F53060" stroke-width="0.2"/>
<path d="M22.65 13.0001C22.65 18.3296 18.3295 22.6501 13 22.6501C7.67054 22.6501 3.35002 18.3296 3.35002 13.0001C3.35002 7.6706 7.67054 3.35008 13 3.35008C18.3295 3.35008 22.65 7.6706 22.65 13.0001ZM13 23.9334C19.0385 23.9334 23.9334 19.0386 23.9334 13.0001C23.9334 6.9616 19.0385 2.06675 13 2.06675C6.96154 2.06675 2.06669 6.9616 2.06669 13.0001C2.06669 19.0386 6.96154 23.9334 13 23.9334Z" fill="#F53060" stroke="#F53060" stroke-width="0.2"/>
</svg>
