<svg width="32" height="32" viewBox="0 0 32 32" fill="none" xmlns="http://www.w3.org/2000/svg">
<g clip-path="url(#clip0_71_9)">
<path d="M16 8C15.0111 8 14.0444 8.29325 13.2222 8.84265C12.3999 9.39206 11.759 10.173 11.3806 11.0866C11.0022 12.0002 10.9031 13.0055 11.0961 13.9755C11.289 14.9454 11.7652 15.8363 12.4645 16.5355C13.1637 17.2348 14.0546 17.711 15.0246 17.9039C15.9945 18.0969 16.9998 17.9978 17.9134 17.6194C18.8271 17.241 19.6079 16.6001 20.1574 15.7779C20.7068 14.9556 21 13.9889 21 13C21 11.6739 20.4732 10.4021 19.5355 9.46447C18.5979 8.52678 17.3261 8 16 8ZM16 16C15.4067 16 14.8266 15.8241 14.3333 15.4944C13.8399 15.1648 13.4554 14.6962 13.2284 14.1481C13.0013 13.5999 12.9419 12.9967 13.0576 12.4147C13.1734 11.8328 13.4591 11.2982 13.8787 10.8787C14.2982 10.4591 14.8328 10.1734 15.4147 10.0576C15.9967 9.94189 16.5999 10.0013 17.1481 10.2284C17.6962 10.4554 18.1648 10.8399 18.4944 11.3333C18.8241 11.8266 19 12.4067 19 13C18.9992 13.7954 18.6829 14.558 18.1204 15.1204C17.558 15.6829 16.7954 15.9992 16 16Z" fill="#F53060"/>
<path d="M16 0C12.8355 0 9.74207 0.938384 7.11088 2.69649C4.4797 4.45459 2.42894 6.95345 1.21793 9.87706C0.00693253 12.8007 -0.309921 16.0177 0.307443 19.1214C0.924806 22.2251 2.44866 25.0761 4.6863 27.3137C6.92394 29.5513 9.77487 31.0752 12.8786 31.6926C15.9823 32.3099 19.1993 31.9931 22.1229 30.7821C25.0466 29.5711 27.5454 27.5203 29.3035 24.8891C31.0616 22.2579 32 19.1645 32 16C31.9952 11.758 30.3079 7.69117 27.3084 4.69164C24.3088 1.6921 20.242 0.00483968 16 0V0ZM9.14286 27.8594V26.2857C9.14377 25.3767 9.50529 24.5051 10.1481 23.8623C10.7909 23.2196 11.6624 22.858 12.5714 22.8571H19.4286C20.3376 22.858 21.2092 23.2196 21.8519 23.8623C22.4947 24.5051 22.8562 25.3767 22.8571 26.2857V27.8594C20.7762 29.0745 18.4097 29.7148 16 29.7148C13.5903 29.7148 11.2238 29.0745 9.14286 27.8594V27.8594ZM25.1337 26.2011C25.1109 24.7021 24.5002 23.272 23.433 22.219C22.3659 21.1659 20.9278 20.5742 19.4286 20.5714H12.5714C11.0722 20.5742 9.63411 21.1659 8.56696 22.219C7.49982 23.272 6.88907 24.7021 6.86629 26.2011C4.79379 24.3506 3.33227 21.9141 2.67525 19.2145C2.01822 16.5148 2.19669 13.6792 3.18702 11.0833C4.17735 8.48728 5.93283 6.25333 8.221 4.67722C10.5092 3.1011 13.2221 2.25717 16.0006 2.25717C18.779 2.25717 21.492 3.1011 23.7801 4.67722C26.0683 6.25333 27.8238 8.48728 28.8141 11.0833C29.8045 13.6792 29.9829 16.5148 29.3259 19.2145C28.6689 21.9141 27.2074 24.3506 25.1349 26.2011H25.1337Z" fill="#F53060"/>
</g>
<defs>
<clipPath id="clip0_71_9">
<rect width="32" height="32" fill="white"/>
</clipPath>
</defs>
</svg>
