<svg width="36" height="36" viewBox="0 0 36 36" fill="none" xmlns="http://www.w3.org/2000/svg">
<path d="M11.25 15.75C11.25 15.4516 11.3685 15.1655 11.5795 14.9545C11.7905 14.7435 12.0766 14.625 12.375 14.625H23.625C23.9234 14.625 24.2095 14.7435 24.4205 14.9545C24.6315 15.1655 24.75 15.4516 24.75 15.75C24.75 16.0484 24.6315 16.3345 24.4205 16.5455C24.2095 16.7565 23.9234 16.875 23.625 16.875H12.375C12.0766 16.875 11.7905 16.7565 11.5795 16.5455C11.3685 16.3345 11.25 16.0484 11.25 15.75ZM12.375 21.375H23.625C23.9234 21.375 24.2095 21.2565 24.4205 21.0455C24.6315 20.8345 24.75 20.5484 24.75 20.25C24.75 19.9516 24.6315 19.6655 24.4205 19.4545C24.2095 19.2435 23.9234 19.125 23.625 19.125H12.375C12.0766 19.125 11.7905 19.2435 11.5795 19.4545C11.3685 19.6655 11.25 19.9516 11.25 20.25C11.25 20.5484 11.3685 20.8345 11.5795 21.0455C11.7905 21.2565 12.0766 21.375 12.375 21.375V21.375ZM31.5 9V25.875C31.4963 26.769 31.1395 27.6253 30.5074 28.2574C29.8753 28.8895 29.019 29.2463 28.125 29.25H3.375C2.48233 29.25 1.62601 28.8964 0.993473 28.2665C0.36094 27.6366 0.00371948 26.7817 0 25.8891V12.375C0 12.0766 0.118526 11.7905 0.329505 11.5795C0.540483 11.3685 0.826631 11.25 1.125 11.25C1.42337 11.25 1.70952 11.3685 1.9205 11.5795C2.13147 11.7905 2.25 12.0766 2.25 12.375V25.875C2.25 26.1734 2.36853 26.4595 2.5795 26.6705C2.79048 26.8815 3.07663 27 3.375 27C3.67337 27 3.95952 26.8815 4.17049 26.6705C4.38147 26.4595 4.5 26.1734 4.5 25.875V9C4.5 8.40326 4.73705 7.83097 5.15901 7.40901C5.58097 6.98705 6.15326 6.75 6.75 6.75H29.25C29.8467 6.75 30.419 6.98705 30.841 7.40901C31.2629 7.83097 31.5 8.40326 31.5 9ZM29.25 9H6.75V25.875C6.74988 26.2586 6.68327 26.6392 6.55312 27H28.125C28.4234 27 28.7095 26.8815 28.9205 26.6705C29.1315 26.4595 29.25 26.1734 29.25 25.875V9Z" fill="#F53060"/>
</svg>
