<svg width="32" height="32" viewBox="0 0 32 32" fill="none" xmlns="http://www.w3.org/2000/svg">
<path d="M7.33335 9.33333C7.33335 8.44928 7.68454 7.60143 8.30966 6.97631C8.93479 6.35119 9.78263 6 10.6667 6C11.5507 6 12.3986 6.35119 13.0237 6.97631C13.6488 7.60143 14 8.44928 14 9.33333C14 10.2174 13.6488 11.0652 13.0237 11.6904C12.3986 12.3155 11.5507 12.6667 10.6667 12.6667C9.78263 12.6667 8.93479 12.3155 8.30966 11.6904C7.68454 11.0652 7.33335 10.2174 7.33335 9.33333V9.33333ZM10.6667 4C9.2522 4 7.89564 4.5619 6.89545 5.5621C5.89526 6.56229 5.33335 7.91885 5.33335 9.33333C5.33335 10.7478 5.89526 12.1044 6.89545 13.1046C7.89564 14.1048 9.2522 14.6667 10.6667 14.6667C12.0812 14.6667 13.4377 14.1048 14.4379 13.1046C15.4381 12.1044 16 10.7478 16 9.33333C16 7.91885 15.4381 6.56229 14.4379 5.5621C13.4377 4.5619 12.0812 4 10.6667 4ZM20.6667 10.6667C20.6667 10.1362 20.8774 9.62753 21.2525 9.25245C21.6275 8.87738 22.1363 8.66667 22.6667 8.66667C23.1971 8.66667 23.7058 8.87738 24.0809 9.25245C24.456 9.62753 24.6667 10.1362 24.6667 10.6667C24.6667 11.1971 24.456 11.7058 24.0809 12.0809C23.7058 12.456 23.1971 12.6667 22.6667 12.6667C22.1363 12.6667 21.6275 12.456 21.2525 12.0809C20.8774 11.7058 20.6667 11.1971 20.6667 10.6667ZM22.6667 6.66667C21.6058 6.66667 20.5884 7.08809 19.8383 7.83824C19.0881 8.58838 18.6667 9.6058 18.6667 10.6667C18.6667 11.7275 19.0881 12.7449 19.8383 13.4951C20.5884 14.2452 21.6058 14.6667 22.6667 14.6667C23.7276 14.6667 24.745 14.2452 25.4951 13.4951C26.2453 12.7449 26.6667 11.7275 26.6667 10.6667C26.6667 9.6058 26.2453 8.58838 25.4951 7.83824C24.745 7.08809 23.7276 6.66667 22.6667 6.66667ZM5.66669 17.3333C4.87104 17.3333 4.10798 17.6494 3.54537 18.212C2.98276 18.7746 2.66669 19.5377 2.66669 20.3333V20.704C2.66825 20.7967 2.67448 20.8893 2.68535 20.9813C2.79546 21.9735 3.15207 22.9223 3.72269 23.7413C4.81335 25.2987 6.89602 26.6667 10.6667 26.6667C12.492 26.6667 13.9214 26.3467 15.0347 25.84C14.8321 25.1682 14.7122 24.4742 14.6774 23.7733C13.8174 24.28 12.5507 24.6667 10.6667 24.6667C7.43735 24.6667 6.01869 23.5333 5.36002 22.5933C4.98634 22.0548 4.75139 21.4324 4.67602 20.7813C4.672 20.7463 4.66889 20.7112 4.66669 20.676V20.3333C4.66669 20.0681 4.77204 19.8138 4.95958 19.6262C5.14712 19.4387 5.40147 19.3333 5.66669 19.3333H15.6427C15.9747 18.6973 16.3827 18.108 16.8547 17.5773C16.4795 17.4157 16.0752 17.3327 15.6667 17.3333H5.66669ZM30.6667 23.3333C30.6667 21.3884 29.8941 19.5231 28.5188 18.1479C27.1435 16.7726 25.2783 16 23.3334 16C21.3884 16 19.5232 16.7726 18.1479 18.1479C16.7726 19.5231 16 21.3884 16 23.3333C16 25.2783 16.7726 27.1435 18.1479 28.5188C19.5232 29.894 21.3884 30.6667 23.3334 30.6667C25.2783 30.6667 27.1435 29.894 28.5188 28.5188C29.8941 27.1435 30.6667 25.2783 30.6667 23.3333ZM24 24L24.0014 27.3373C24.0014 27.5141 23.9311 27.6837 23.8061 27.8087C23.6811 27.9338 23.5115 28.004 23.3347 28.004C23.1579 28.004 22.9883 27.9338 22.8633 27.8087C22.7383 27.6837 22.668 27.5141 22.668 27.3373V24H19.328C19.1512 24 18.9816 23.9298 18.8566 23.8047C18.7316 23.6797 18.6614 23.5101 18.6614 23.3333C18.6614 23.1565 18.7316 22.987 18.8566 22.8619C18.9816 22.7369 19.1512 22.6667 19.328 22.6667H22.6667V19.3333C22.6667 19.1565 22.7369 18.987 22.8619 18.8619C22.987 18.7369 23.1565 18.6667 23.3334 18.6667C23.5102 18.6667 23.6797 18.7369 23.8048 18.8619C23.9298 18.987 24 19.1565 24 19.3333V22.6667H27.3294C27.5062 22.6667 27.6757 22.7369 27.8008 22.8619C27.9258 22.987 27.996 23.1565 27.996 23.3333C27.996 23.5101 27.9258 23.6797 27.8008 23.8047C27.6757 23.9298 27.5062 24 27.3294 24H24Z" fill="#F53060"/>
</svg>
